{
    "asset": {
        "generator": "Khronos glTF Blender I/O v3.6.27",
        "version": "2.0"
    },
    "scene": 0,
    "scenes": [
        {
            "name": "Scene",
            "nodes": [
                0
            ]
        }
    ],
    "nodes": [
        {
            "mesh": 0,
            "name": "ujqhebs_LOD0_TIER0_000",
            "rotation": [
                0.7071068286895752,
                0,
                0,
                0.7071068286895752
            ],
            "scale": [
                0.009999999776482582,
                0.009999999776482582,
                0.009999999776482582
            ]
        }
    ],
    "materials": [
        {
            "doubleSided": true,
            "name": "MI_ujqhebs",
            "normalTexture": {
                "index": 0
            },
            "occlusionTexture": {
                "index": 1
            },
            "pbrMetallicRoughness": {
                "baseColorTexture": {
                    "index": 2
                },
                "metallicRoughnessTexture": {
                    "index": 1
                }
            }
        }
    ],
    "meshes": [
        {
            "name": "S_ujqhebs_tier_0",
            "primitives": [
                {
                    "attributes": {
                        "POSITION": 0,
                        "NORMAL": 1,
                        "TEXCOORD_0": 2,
                        "TANGENT": 3
                    },
                    "indices": 4,
                    "material": 0
                }
            ]
        }
    ],
    "textures": [
        {
            "sampler": 0,
            "source": 0
        },
        {
            "sampler": 0,
            "source": 1
        },
        {
            "sampler": 0,
            "source": 2
        }
    ],
    "images": [
        {
            "mimeType": "image/png",
            "name": "T_ujqhebs_8K_N",
            "uri": "Textures/T_ujqhebs_8K_N.png"
        },
        {
            "mimeType": "image/png",
            "name": "T_ujqhebs_8K_ORM",
            "uri": "Textures/T_ujqhebs_8K_ORM.png",
            "extras": {
                "compression": "mask"
            }
        },
        {
            "mimeType": "image/png",
            "name": "T_ujqhebs_8K_B",
            "uri": "Textures/T_ujqhebs_8K_B.png"
        }
    ],
    "accessors": [
        {
            "bufferView": 0,
            "componentType": 5126,
            "count": 503961,
            "max": [
                22.188947677612305,
                4.251055717468262,
                0.17423483729362488
            ],
            "min": [
                -22.168209075927734,
                -4.2164998054504395,
                -6.294807434082031
            ],
            "type": "VEC3"
        },
        {
            "bufferView": 1,
            "componentType": 5126,
            "count": 503961,
            "type": "VEC3"
        },
        {
            "bufferView": 2,
            "componentType": 5126,
            "count": 503961,
            "type": "VEC2"
        },
        {
            "bufferView": 3,
            "componentType": 5126,
            "count": 503961,
            "type": "VEC4"
        },
        {
            "bufferView": 4,
            "componentType": 5125,
            "count": 3008238,
            "type": "SCALAR"
        }
    ],
    "bufferViews": [
        {
            "buffer": 0,
            "byteLength": 6047532,
            "byteOffset": 0,
            "target": 34962
        },
        {
            "buffer": 0,
            "byteLength": 6047532,
            "byteOffset": 6047532,
            "target": 34962
        },
        {
            "buffer": 0,
            "byteLength": 4031688,
            "byteOffset": 12095064,
            "target": 34962
        },
        {
            "buffer": 0,
            "byteLength": 8063376,
            "byteOffset": 16126752,
            "target": 34962
        },
        {
            "buffer": 0,
            "byteLength": 12032952,
            "byteOffset": 24190128,
            "target": 34963
        }
    ],
    "samplers": [
        {
            "magFilter": 9729,
            "minFilter": 9987
        }
    ],
    "buffers": [
        {
            "byteLength": 36223080,
            "uri": "ujqhebs_tier_0.bin"
        }
    ]
}