{
  "accessors": [
    {
      "bufferView": 2,
      "componentType": 5126,
      "count": 2083,
      "max": [
        0.023522600531578064,
        0.022117502987384796,
        0.023522596806287766
      ],
      "min": [
        -0.01685592532157898,
        -0.03799200430512428,
        -0.0462535060942173
      ],
      "type": "VEC3"
    },
    {
      "bufferView": 2,
      "byteOffset": 24996,
      "componentType": 5126,
      "count": 2083,
      "type": "VEC3"
    },
    {
      "bufferView": 3,
      "componentType": 5126,
      "count": 2083,
      "type": "VEC4"
    },
    {
      "bufferView": 1,
      "componentType": 5126,
      "count": 2083,
      "type": "VEC2"
    },
    {
      "bufferView": 0,
      "componentType": 5125,
      "count": 5274,
      "type": "SCALAR"
    },
    {
      "bufferView": 2,
      "byteOffset": 49992,
      "componentType": 5126,
      "count": 685,
      "max": [
        0.012898431159555912,
        0.02353595569729805,
        0.012898431159555912
      ],
      "min": [
        -0.012898431159555912,
        -0.033832207322120667,
        -0.012898430228233337
      ],
      "type": "VEC3"
    },
    {
      "bufferView": 2,
      "byteOffset": 58212,
      "componentType": 5126,
      "count": 685,
      "type": "VEC3"
    },
    {
      "bufferView": 3,
      "byteOffset": 33328,
      "componentType": 5126,
      "count": 685,
      "type": "VEC4"
    },
    {
      "bufferView": 1,
      "byteOffset": 16664,
      "componentType": 5126,
      "count": 685,
      "type": "VEC2"
    },
    {
      "bufferView": 0,
      "byteOffset": 21096,
      "componentType": 5125,
      "count": 2520,
      "type": "SCALAR"
    },
    {
      "bufferView": 2,
      "byteOffset": 66432,
      "componentType": 5126,
      "count": 417,
      "max": [
        0.0046218326315283775,
        0.015004787594079971,
        0.020105838775634766
      ],
      "min": [
        -0.004621905740350485,
        -0.0018414693186059594,
        0.01670154370367527
      ],
      "type": "VEC3"
    },
    {
      "bufferView": 2,
      "byteOffset": 71436,
      "componentType": 5126,
      "count": 417,
      "type": "VEC3"
    },
    {
      "bufferView": 3,
      "byteOffset": 44288,
      "componentType": 5126,
      "count": 417,
      "type": "VEC4"
    },
    {
      "bufferView": 1,
      "byteOffset": 22144,
      "componentType": 5126,
      "count": 417,
      "type": "VEC2"
    },
    {
      "bufferView": 0,
      "byteOffset": 31176,
      "componentType": 5125,
      "count": 1056,
      "type": "SCALAR"
    },
    {
      "bufferView": 2,
      "byteOffset": 76440,
      "componentType": 5126,
      "count": 2310,
      "max": [
        0.02300797961652279,
        0.011805213987827301,
        0.023282770067453384
      ],
      "min": [
        -0.022801987826824188,
        -0.018706273287534714,
        -0.007738837506622076
      ],
      "type": "VEC3"
    },
    {
      "bufferView": 2,
      "byteOffset": 104160,
      "componentType": 5126,
      "count": 2310,
      "type": "VEC3"
    },
    {
      "bufferView": 3,
      "byteOffset": 50960,
      "componentType": 5126,
      "count": 2310,
      "type": "VEC4"
    },
    {
      "bufferView": 1,
      "byteOffset": 25480,
      "componentType": 5126,
      "count": 2310,
      "type": "VEC2"
    },
    {
      "bufferView": 0,
      "byteOffset": 35400,
      "componentType": 5125,
      "count": 5400,
      "type": "SCALAR"
    },
    {
      "bufferView": 2,
      "byteOffset": 131880,
      "componentType": 5126,
      "count": 770,
      "max": [
        0.020238667726516724,
        -0.005331453867256641,
        -0.03921249136328697
      ],
      "min": [
        -0.01522328332066536,
        -0.012393400073051453,
        -0.04627443477511406
      ],
      "type": "VEC3"
    },
    {
      "bufferView": 2,
      "byteOffset": 141120,
      "componentType": 5126,
      "count": 770,
      "type": "VEC3"
    },
    {
      "bufferView": 3,
      "byteOffset": 87920,
      "componentType": 5126,
      "count": 770,
      "type": "VEC4"
    },
    {
      "bufferView": 1,
      "byteOffset": 43960,
      "componentType": 5126,
      "count": 770,
      "type": "VEC2"
    },
    {
      "bufferView": 0,
      "byteOffset": 57000,
      "componentType": 5125,
      "count": 2208,
      "type": "SCALAR"
    }
  ],
  "asset": {
    "generator": "fab-model-conversion",
    "version": "2.0"
  },
  "bufferViews": [
    {
      "buffer": 0,
      "byteLength": 65832,
      "target": 34963
    },
    {
      "buffer": 0,
      "byteLength": 50120,
      "byteOffset": 65832,
      "byteStride": 8,
      "target": 34962
    },
    {
      "buffer": 0,
      "byteLength": 150360,
      "byteOffset": 115952,
      "byteStride": 12,
      "target": 34962
    },
    {
      "buffer": 0,
      "byteLength": 100240,
      "byteOffset": 266312,
      "byteStride": 16,
      "target": 34962
    }
  ],
  "buffers": [
    {
      "byteLength": 366552,
      "uri": "scene.bin"
    }
  ],
  "extensionsUsed": [
    "KHR_materials_specular"
  ],
  "images": [
    {
      "uri": "textures/Material_baseColor.png"
    },
    {
      "uri": "textures/Material_metallicRoughness.png"
    },
    {
      "uri": "textures/Material_normal.png"
    },
    {
      "uri": "textures/Material.003_baseColor.png"
    },
    {
      "uri": "textures/Material.003_metallicRoughness.png"
    },
    {
      "uri": "textures/Material.003_normal.png"
    },
    {
      "uri": "textures/Material.002_baseColor.png"
    },
    {
      "uri": "textures/Material.002_metallicRoughness.png"
    },
    {
      "uri": "textures/Material.002_normal.png"
    },
    {
      "uri": "textures/Material.001_baseColor.png"
    },
    {
      "uri": "textures/Material.001_metallicRoughness.png"
    },
    {
      "uri": "textures/Material.001_normal.png"
    },
    {
      "uri": "textures/Material.004_baseColor.png"
    },
    {
      "uri": "textures/Material.004_metallicRoughness.png"
    },
    {
      "uri": "textures/Material.004_normal.png"
    }
  ],
  "materials": [
    {
      "doubleSided": true,
      "name": "Material",
      "normalTexture": {
        "index": 2
      },
      "occlusionTexture": {
        "index": 1
      },
      "pbrMetallicRoughness": {
        "baseColorTexture": {
          "index": 0
        },
        "metallicRoughnessTexture": {
          "index": 1
        }
      }
    },
    {
      "doubleSided": true,
      "extensions": {
        "KHR_materials_specular": {
          "specularColorFactor": [
            1.0,
            1.0,
            1.0
          ],
          "specularFactor": 0.905009034880113
        }
      },
      "name": "Material.003",
      "normalTexture": {
        "index": 5
      },
      "occlusionTexture": {
        "index": 4
      },
      "pbrMetallicRoughness": {
        "baseColorTexture": {
          "index": 3
        },
        "metallicRoughnessTexture": {
          "index": 4
        }
      }
    },
    {
      "doubleSided": true,
      "name": "Material.002",
      "normalTexture": {
        "index": 8
      },
      "occlusionTexture": {
        "index": 7
      },
      "pbrMetallicRoughness": {
        "baseColorTexture": {
          "index": 6
        },
        "metallicRoughnessTexture": {
          "index": 7
        }
      }
    },
    {
      "doubleSided": true,
      "extensions": {
        "KHR_materials_specular": {
          "specularColorFactor": [
            1.0,
            1.0,
            1.0
          ],
          "specularFactor": 0.0
        }
      },
      "name": "Material.001",
      "normalTexture": {
        "index": 11
      },
      "occlusionTexture": {
        "index": 10
      },
      "pbrMetallicRoughness": {
        "baseColorTexture": {
          "index": 9
        },
        "metallicRoughnessTexture": {
          "index": 10
        }
      }
    },
    {
      "doubleSided": true,
      "name": "Material.004",
      "normalTexture": {
        "index": 14
      },
      "occlusionTexture": {
        "index": 13
      },
      "pbrMetallicRoughness": {
        "baseColorTexture": {
          "index": 12
        },
        "metallicRoughnessTexture": {
          "index": 13
        }
      }
    }
  ],
  "meshes": [
    {
      "name": "Cylinder.001_Material_0",
      "primitives": [
        {
          "attributes": {
            "NORMAL": 1,
            "POSITION": 0,
            "TANGENT": 2,
            "TEXCOORD_0": 3
          },
          "indices": 4,
          "material": 0,
          "mode": 4
        }
      ]
    },
    {
      "name": "Cylinder.001_Material.003_0",
      "primitives": [
        {
          "attributes": {
            "NORMAL": 6,
            "POSITION": 5,
            "TANGENT": 7,
            "TEXCOORD_0": 8
          },
          "indices": 9,
          "material": 1,
          "mode": 4
        }
      ]
    },
    {
      "name": "Cylinder.001_Material.002_0",
      "primitives": [
        {
          "attributes": {
            "NORMAL": 11,
            "POSITION": 10,
            "TANGENT": 12,
            "TEXCOORD_0": 13
          },
          "indices": 14,
          "material": 2,
          "mode": 4
        }
      ]
    },
    {
      "name": "Cylinder.001_Material.001_0",
      "primitives": [
        {
          "attributes": {
            "NORMAL": 16,
            "POSITION": 15,
            "TANGENT": 17,
            "TEXCOORD_0": 18
          },
          "indices": 19,
          "material": 3,
          "mode": 4
        }
      ]
    },
    {
      "name": "Cylinder.001_Material.004_0",
      "primitives": [
        {
          "attributes": {
            "NORMAL": 21,
            "POSITION": 20,
            "TANGENT": 22,
            "TEXCOORD_0": 23
          },
          "indices": 24,
          "material": 4,
          "mode": 4
        }
      ]
    }
  ],
  "nodes": [
    {
      "children": [
        1
      ],
      "matrix": [
        1.0,
        0.0,
        0.0,
        0.0,
        0.0,
        2.220446049250313e-16,
        -1.0,
        0.0,
        0.0,
        1.0,
        2.220446049250313e-16,
        0.0,
        0.0,
        0.0,
        0.0,
        1.0
      ],
      "name": "Sketchfab_model"
    },
    {
      "children": [
        2
      ],
      "matrix": [
        0.009999999776482582,
        0.0,
        0.0,
        0.0,
        0.0,
        0.0,
        0.009999999776482582,
        0.0,
        0.0,
        -0.009999999776482582,
        0.0,
        0.0,
        0.0,
        0.0,
        0.0,
        1.0
      ],
      "name": "cb97c75140c242aea1383795f4172ec9.fbx"
    },
    {
      "children": [
        3
      ],
      "name": "RootNode"
    },
    {
      "children": [
        4,
        5,
        6,
        7,
        8
      ],
      "matrix": [
        100.0,
        0.0,
        0.0,
        0.0,
        0.0,
        -1.629206793918314e-05,
        -99.99999999999868,
        0.0,
        0.0,
        99.99999999999868,
        -1.629206793918314e-05,
        0.0,
        0.0,
        4.64525842666626,
        -0.517997145652771,
        1.0
      ],
      "name": "Cylinder.001"
    },
    {
      "mesh": 0,
      "name": "Cylinder.001_Material_0"
    },
    {
      "mesh": 1,
      "name": "Cylinder.001_Material.003_0"
    },
    {
      "mesh": 2,
      "name": "Cylinder.001_Material.002_0"
    },
    {
      "mesh": 3,
      "name": "Cylinder.001_Material.001_0"
    },
    {
      "mesh": 4,
      "name": "Cylinder.001_Material.004_0"
    }
  ],
  "samplers": [
    {
      "magFilter": 9729,
      "minFilter": 9987,
      "wrapS": 10497,
      "wrapT": 10497
    }
  ],
  "scene": 0,
  "scenes": [
    {
      "name": "Sketchfab_Scene",
      "nodes": [
        0
      ]
    }
  ],
  "textures": [
    {
      "sampler": 0,
      "source": 0
    },
    {
      "sampler": 0,
      "source": 1
    },
    {
      "sampler": 0,
      "source": 2
    },
    {
      "sampler": 0,
      "source": 3
    },
    {
      "sampler": 0,
      "source": 4
    },
    {
      "sampler": 0,
      "source": 5
    },
    {
      "sampler": 0,
      "source": 6
    },
    {
      "sampler": 0,
      "source": 7
    },
    {
      "sampler": 0,
      "source": 8
    },
    {
      "sampler": 0,
      "source": 9
    },
    {
      "sampler": 0,
      "source": 10
    },
    {
      "sampler": 0,
      "source": 11
    },
    {
      "sampler": 0,
      "source": 12
    },
    {
      "sampler": 0,
      "source": 13
    },
    {
      "sampler": 0,
      "source": 14
    }
  ]
}
